<svg width="58" height="43" viewBox="0 0 58 43" fill="none" xmlns="http://www.w3.org/2000/svg">
<path d="M51.8198 0.0407608H7.96386C5.92594 0.0407608 4.05106 1.18199 3.11362 3.01612L1.56481 6.11374C0.627372 7.94787 0.831156 10.1488 2.05391 11.7792L5.4776 16.3848C4.09182 14.2654 5.59988 11.3716 8.16765 11.3716H43.6274L51.9828 0C51.9421 0.0407583 51.8605 0.0407608 51.8198 0.0407608Z" fill="url(#paint0_linear_105_11)"/>
<path d="M57.7708 11.4123H43.6277L31.3595 27.9194L29.8107 29.9981L29.8514 30.0389L29.8107 29.9981L29.7699 30.0389L15.9121 11.3716H8.12723C5.5187 11.3716 4.01065 14.2654 5.43719 16.3849L7.76041 19.4825L24.0637 41.4104C25.0419 42.3886 26.387 43 27.7727 43H31.6855C33.3159 43 34.8647 42.2256 35.8836 40.8806L37.1471 39.1687L57.567 11.6569C57.6486 11.6161 57.6893 11.5346 57.7708 11.4123Z" fill="url(#paint1_linear_105_11)"/>
<path opacity="0.3" d="M8.16765 11.4123H15.9525L11.306 5.17632C9.71647 3.05689 11.2653 0.0407715 13.9146 0.0407715H7.96386C5.92594 0.0407715 4.05106 1.182 3.11362 3.01613L1.56481 6.11375C0.627372 7.94788 0.831156 10.1488 2.05391 11.7792L5.4776 16.3848C4.05106 14.3062 5.55912 11.4123 8.16765 11.4123Z" fill="#00682A"/>
<defs>
<linearGradient id="paint0_linear_105_11" x1="0.974263" y1="8.23689" x2="51.9881" y2="8.23689" gradientUnits="userSpaceOnUse">
<stop offset="4.69927e-07" stop-color="#20C971"/>
<stop offset="0.0771221" stop-color="#20C97C"/>
<stop offset="0.2853" stop-color="#20C995"/>
<stop offset="0.5027" stop-color="#20C9A7"/>
<stop offset="0.7335" stop-color="#20C9B2"/>
<stop offset="1" stop-color="#20C9B5"/>
</linearGradient>
<linearGradient id="paint1_linear_105_11" x1="10.1144" y1="19.62" x2="54.4455" y2="30.0264" gradientUnits="userSpaceOnUse">
<stop offset="4.69927e-07" stop-color="#20C971"/>
<stop offset="0.0771221" stop-color="#20C97C"/>
<stop offset="0.2853" stop-color="#20C995"/>
<stop offset="0.5027" stop-color="#20C9A7"/>
<stop offset="0.7335" stop-color="#20C9B2"/>
<stop offset="1" stop-color="#20C9B5"/>
</linearGradient>
</defs>
</svg>
