<svg width="35" height="35" viewBox="0 0 35 35" fill="none" xmlns="http://www.w3.org/2000/svg">
<path d="M13.1248 32.0833C13.9303 32.0833 14.5832 31.4304 14.5832 30.625C14.5832 29.8195 13.9303 29.1666 13.1248 29.1666C12.3194 29.1666 11.6665 29.8195 11.6665 30.625C11.6665 31.4304 12.3194 32.0833 13.1248 32.0833Z" stroke="url(#paint0_linear_105_129)" stroke-width="2" stroke-linecap="round" stroke-linejoin="round"/>
<path d="M29.1668 32.0833C29.9722 32.0833 30.6252 31.4304 30.6252 30.625C30.6252 29.8195 29.9722 29.1666 29.1668 29.1666C28.3614 29.1666 27.7085 29.8195 27.7085 30.625C27.7085 31.4304 28.3614 32.0833 29.1668 32.0833Z" stroke="url(#paint1_linear_105_129)" stroke-width="2" stroke-linecap="round" stroke-linejoin="round"/>
<path d="M1.4585 1.45837H7.29183L11.2002 20.9855C11.3335 21.6569 11.6988 22.26 12.232 22.6892C12.7652 23.1185 13.4324 23.3465 14.1168 23.3334H28.2918C28.9762 23.3465 29.6434 23.1185 30.1767 22.6892C30.7099 22.26 31.0751 21.6569 31.2085 20.9855L33.5418 8.75004H8.75016" stroke="url(#paint2_linear_105_129)" stroke-width="2" stroke-linecap="round" stroke-linejoin="round"/>
<defs>
<linearGradient id="paint0_linear_105_129" x1="13.1248" y1="29.1666" x2="13.1248" y2="32.0833" gradientUnits="userSpaceOnUse">
<stop stop-color="#20C971"/>
<stop offset="1" stop-color="#20C9B5"/>
</linearGradient>
<linearGradient id="paint1_linear_105_129" x1="29.1668" y1="29.1666" x2="29.1668" y2="32.0833" gradientUnits="userSpaceOnUse">
<stop stop-color="#20C971"/>
<stop offset="1" stop-color="#20C9B5"/>
</linearGradient>
<linearGradient id="paint2_linear_105_129" x1="17.5002" y1="1.45837" x2="17.5002" y2="23.3339" gradientUnits="userSpaceOnUse">
<stop stop-color="#20C971"/>
<stop offset="1" stop-color="#20C9B5"/>
</linearGradient>
</defs>
</svg>
